Coordinates
version=1
nRows=16
nColumns=40
inDegrees=yes

Units are S.I. units (second, meters, Newtons, ...)
Angles are in degrees.

endheader
time	pelvis_tilt	pelvis_list	pelvis_rotation	pelvis_tx	pelvis_ty	pelvis_tz	hip_flexion_r	hip_adduction_r	hip_rotation_r	knee_angle_r	knee_angle_r_beta	ankle_angle_r	subtalar_angle_r	mtp_angle_r	hip_flexion_l	hip_adduction_l	hip_rotation_l	knee_angle_l	knee_angle_l_beta	ankle_angle_l	subtalar_angle_l	mtp_angle_l	lumbar_extension	lumbar_bending	lumbar_rotation	arm_flex_r	arm_add_r	arm_rot_r	elbow_flex_r	pro_sup_r	wrist_flex_r	wrist_dev_r	arm_flex_l	arm_add_l	arm_rot_l	elbow_flex_l	pro_sup_l	wrist_flex_l	wrist_dev_l
      9.18500000	     -3.67971907	     -4.73601315	     -1.22064917	      0.68960557	      0.92759972	      0.48293904	     18.46164768	      2.84066240	     -8.62637781	     20.11026497	     20.11026497	      7.25668346	     -3.77844135	     -1.68623628	      2.58528057	    -10.23267987	     -8.27311172	     30.34082543	     30.34082543	     16.10780614	     -2.28673593	    -11.16879686	     -8.33899352	      5.84337203	     -1.34761749	     -2.29970683	    -15.48771246	     -7.65045162	     56.57528425	     45.16940131	      0.00000000	      0.00000000	      9.67934906	    -10.33970401	     -8.43276473	     36.80449407	     46.91787962	      0.00000000	      0.00000000
      9.19885714	     -3.67426709	     -4.81199326	     -0.81811760	      0.69032390	      0.92803013	      0.48590721	     17.80081969	      3.02501024	     -9.12748389	     19.93354483	     19.93354483	      7.76901751	     -3.42591807	     -1.65862684	      3.94213989	    -10.78236164	     -7.14206816	     33.24485616	     33.24485616	     13.29944130	     -4.44072863	    -15.43846336	     -8.27801255	      5.85132023	     -0.99300312	     -1.83079168	    -16.08507869	     -8.34776281	     59.98578698	     45.10873574	      0.00000000	      0.00000000	      9.08594202	    -10.09124078	     -7.91851195	     34.22391822	     46.81003789	      0.00000000	      0.00000000
      9.21271429	     -3.65023680	     -4.95008158	     -0.39173635	      0.69087460	      0.92835181	      0.48886185	     17.11763138	      3.28910941	     -9.62032581	     19.72220640	     19.72220640	      8.18896719	     -3.18922788	     -1.76184358	      5.68533059	    -11.47191789	     -6.06829506	     36.94477481	     36.94477481	     11.73660107	     -5.54087059	    -16.09165528	     -8.22871132	      5.90321529	     -1.22511647	     -0.23933617	    -16.51117283	     -8.73980581	     61.60745445	     45.07920263	      0.00000000	      0.00000000	      7.71118697	    -10.04547853	     -7.79370454	     33.07787758	     46.76742520	      0.00000000	      0.00000000
      9.22657143	     -3.65429767	     -4.91121637	      0.01994519	      0.69124160	      0.92849799	      0.49146422	     16.56645940	      3.27789007	    -10.29039432	     19.71238325	     19.71238325	      8.75680511	     -2.53301281	     -1.77810957	      7.48109642	    -11.72442578	     -4.65230409	     40.39796157	     40.39796157	      8.70951941	     -8.19504676	    -18.91336200	     -8.20889580	      5.83388513	     -0.99669163	     -0.05324579	    -17.42257380	     -8.90341059	     66.51537503	     44.95655521	      0.00000000	      0.00000000	      7.12844727	     -9.88019316	     -7.11310393	     30.40253644	     46.63815657	      0.00000000	      0.00000000
      9.24042857	     -3.63806559	     -4.94065573	      0.43945406	      0.69138937	      0.92857649	      0.49396189	     15.97777544	      3.35274501	    -10.93179409	     19.63346086	     19.63346086	      9.22552907	     -1.97596645	     -1.91599716	      9.53522884	    -12.00559010	     -3.24881826	     44.31627568	     44.31627568	      6.69706558	     -9.98575065	    -18.63351772	     -8.20256489	      5.81892703	     -1.16313574	      1.34893980	    -18.00209917	     -9.30106794	     69.02364138	     44.90743022	      0.00000000	      0.00000000	      5.86800269	     -9.84622381	     -6.85405449	     29.20581763	     46.57239868	      0.00000000	      0.00000000
      9.25428571	     -3.68552174	     -5.03236395	      0.87413408	      0.69130862	      0.92853877	      0.49628652	     15.41961498	      3.51436575	    -11.55079648	     19.42967170	     19.42967170	      9.61000487	     -1.52109020	     -1.98746125	     11.78067617	    -12.27981901	     -1.87769846	     48.23163566	     48.23163566	      4.75356351	    -11.54161800	    -17.81123612	     -8.14091326	      5.86094295	     -1.22099806	      2.76598853	    -18.64279056	     -9.65086225	     71.26579518	     44.85964307	      0.00000000	      0.00000000	      4.59268141	     -9.72688484	     -6.67013604	     28.24680308	     46.52001683	      0.00000000	      0.00000000
      9.26814286	     -3.65033711	     -5.06008609	      1.29035594	      0.69108593	      0.92849725	      0.49829153	     14.83695001	      3.53058438	    -12.33426056	     19.37902791	     19.37902791	     10.22090380	     -0.60646433	     -2.01391766	     14.00590006	    -12.30858961	     -0.48926965	     52.12672431	     52.12672431	      3.72453165	    -12.62217478	    -14.64149378	     -8.23603075	      5.91992849	     -0.69745756	      3.36836734	    -19.82824153	     -9.87503137	     75.12459374	     44.77312367	      0.00000000	      0.00000000	      3.69009402	     -9.50211878	     -6.11481778	     27.29431131	     46.40782222	      0.00000000	      0.00000000
      9.28200000	     -3.60773288	     -5.22003301	      1.70300513	      0.69065709	      0.92861553	      0.50028607	     14.17954832	      3.80244702	    -12.81794895	     19.09800986	     19.09800986	     10.51407975	     -0.37539021	     -2.01510684	     16.15381642	    -12.51975931	      0.59719578	     55.50340826	     55.50340826	      2.06164552	    -13.89046143	    -13.20342676	     -8.33327786	      6.09293767	     -0.62100645	      5.02859157	    -20.49596705	    -10.46482887	     76.59427838	     44.75847550	      0.00000000	      0.00000000	      2.51263262	     -9.30234263	     -5.96892909	     26.68341662	     46.36201384	      0.00000000	      0.00000000
      9.29585714	     -3.55878520	     -5.32290865	      2.10978911	      0.69003544	      0.92880027	      0.50200061	     13.51483253	      3.99251961	    -13.30137006	     18.80258836	     18.80258836	     10.82520039	     -0.03315854	     -2.03962803	     18.22343605	    -12.60030560	      1.51753988	     58.44263695	     58.44263695	      0.80743962	    -15.10699128	    -11.44087433	     -8.45187816	      6.22462914	     -0.38410937	      6.78481424	    -21.33625905	    -11.00057787	     78.17971822	     44.73747688	      0.00000000	      0.00000000	      1.40063782	     -9.10787759	     -5.85826068	     26.23665166	     46.32232284	      0.00000000	      0.00000000
      9.30971429	     -3.51879533	     -5.14184597	      2.52548714	      0.68921545	      0.92916661	      0.50326568	     12.89815739	      3.74036772	    -14.22759913	     18.64640757	     18.64640757	     11.30825772	      1.18136302	     -2.10496294	     20.39690396	    -12.09297697	      2.47903564	     61.34361095	     61.34361095	      2.20074458	    -15.22386204	     -3.59743458	     -8.71483380	      6.09968200	     -0.43725887	      7.95389122	    -21.95359530	    -11.34174634	     82.13976531	     44.65262314	      0.00000000	      0.00000000	     -0.08071418	     -9.01434746	     -5.38211541	     26.40685884	     46.20328134	      0.00000000	      0.00000000
      9.32357143	     -3.56881348	     -5.34822715	      2.91192473	      0.68826011	      0.92942805	      0.50480970	     12.25271999	      4.12119163	    -14.53237313	     18.08301097	     18.08301097	     11.45589641	      1.27145074	     -1.98186056	     22.44254227	    -12.29353084	      3.01535900	     63.22259077	     63.22259077	      1.59309832	    -15.98865202	     -2.40887527	     -8.71375223	      6.34084735	      0.17687337	      9.50997637	    -22.90890880	    -11.94702756	     82.85380793	     44.66252087	      0.00000000	      0.00000000	     -0.98507293	     -8.76130403	     -5.26349602	     26.22217990	     46.16465895	      0.00000000	      0.00000000
      9.33742857	     -3.58561832	     -5.26754073	      3.29796828	      0.68717061	      0.92994331	      0.50600372	     11.56823961	      4.12205992	    -15.01979512	     17.57344668	     17.57344668	     11.72623830	      1.87516864	     -1.90602223	     24.49495539	    -12.01621379	      3.44072265	     64.90040946	     64.90040946	      3.75329036	    -15.75290451	      4.97623546	     -8.88917484	      6.28916478	      0.48034067	     10.90784466	    -23.49249511	    -12.68750870	     84.89306277	     44.67556078	      0.00000000	      0.00000000	     -2.49711043	     -8.79096816	     -4.39988438	     27.34636483	     45.97580004	      0.00000000	      0.00000000
      9.35128571	     -3.61099627	     -5.29747607	      3.67957750	      0.68599905	      0.93056273	      0.50717850	     10.81863485	      4.32826917	    -15.27458707	     16.84528072	     16.84528072	     11.79061429	      2.05704072	     -1.76803230	     26.17951069	    -11.94844104	      3.61401857	     65.37139328	     65.37139328	      3.65892154	    -16.52944444	      5.58920990	     -9.00133232	      6.37665655	      0.73003333	     12.74189813	    -23.98540766	    -13.18177959	     85.89614725	     44.67800406	      0.00000000	      0.00000000	     -3.50277774	     -8.61646010	     -4.16948440	     27.13715255	     45.92011194	      0.00000000	      0.00000000
      9.36514286	     -3.70133664	     -5.19922136	      4.01011764	      0.68465756	      0.93107899	      0.50825201	     10.27922774	      4.36029981	    -15.43263017	     16.39026999	     16.39026999	     11.96191752	      2.13791248	     -1.72932510	     27.75048798	    -11.81877901	      3.44631993	     65.14824687	     65.14824687	      3.82701942	    -16.99576626	      5.81487210	     -9.07758628	      6.28905691	      1.27491761	     14.36011151	    -24.78245934	    -13.64259286	     86.57038702	     44.68188161	      0.00000000	      0.00000000	     -4.27870861	     -8.42100352	     -4.11007328	     27.01698856	     45.89566916	      0.00000000	      0.00000000
      9.37900000	     -3.74174821	     -5.14882503	      4.43768438	      0.68330027	      0.93172456	      0.50903296	      9.50510352	      4.43878464	    -15.91065121	     15.58255600	     15.58255600	     11.95248813	      2.69801162	     -1.82531271	     29.22769814	    -11.49758961	      3.52258824	     64.44781864	     64.44781864	      5.01960946	    -17.22144964	      8.32050832	     -9.25968401	      6.32388963	      1.13361935	     16.38815815	    -24.81389170	    -13.95136271	     87.78099526	     44.71046055	      0.00000000	      0.00000000	     -6.09215552	     -8.47671479	     -3.38722501	     28.81353050	     45.74144540	      0.00000000	      0.00000000
      9.39285714	     -3.91996027	     -5.02230535	      4.78702298	      0.68176397	      0.93206701	      0.50979800	      9.11009637	      4.41690624	    -16.04554693	     15.19834029	     15.19834029	     12.07578184	      2.67809081	     -1.78328768	     30.55975411	    -11.22822169	      3.22025892	     62.91408011	     62.91408011	      5.57394848	    -17.30250318	      8.34419315	     -9.24743272	      6.22278591	      1.65423349	     17.89578244	    -25.50072652	    -14.32882880	     88.33059764	     44.71455978	      0.00000000	      0.00000000	     -6.73069638	     -8.28515670	     -3.32886432	     28.66218852	     45.72176868	      0.00000000	      0.00000000
